<?xml version="1.0" standalone="no"?><!DOCTYPE svg PUBLIC "-//W3C//DTD SVG 1.1//EN" "http://www.w3.org/Graphics/SVG/1.1/DTD/svg11.dtd"><svg t="1578907621135" class="icon" viewBox="0 0 1024 1024" version="1.1" xmlns="http://www.w3.org/2000/svg" p-id="2664" xmlns:xlink="http://www.w3.org/1999/xlink" width="200" height="200"><defs><style type="text/css"></style></defs><path d="M347.7 109.9C161.2 109.9 10 286.8 10 539.2S239 1024 347.7 1024c119.8 0 337.7-232.3 337.7-484.8S534.2 109.9 347.7 109.9zM86.2 603.3C120.8 785.6 320.3 841 320.3 841 37.5 830 86.2 603.3 86.2 603.3z m303.7 240.6S593.8 789 629.1 608.4c0 0.1 49.7 224.6-239.2 235.5zM711.2 293.5l13-14.8 67.1-81.4v-14.4H689.9v17.6h50.5c6.8 0 14.7-0.2 23.7-0.7l-78.9 93.7v17.6h109.7v-18.7h-57.3c-8.2 0-17 0.3-26.4 1.1zM909 203.3c-15.1 0-31.3 0.7-48.6 2l23.7-27.6 123-151.1V0H821.5v32.7h92.6c12.6 0 27-0.4 43.4-1.3l-144.6 174v32.7H1014v-34.7H909z" p-id="2665" fill="#1296db"></path></svg>